# xmcd
#
# Track frame offsets:
#	150
#	21925
#	43900
#	67420
#	91590
#	106725
#	131287
#	156575
#	170282
#	187855
#	200150
#	236180
#	291162
#
# Disc length: 4063 seconds
#
# Revision: 1
# Processed by: cddbd v1.5.1PL0 Copyright (c) Steve Scherf et al.
# Submitted via: CDex 1.50Beta5
#
DISCID=ba0fdd0d
DTITLE=J.J.ジョンソン - ベスト・オブ・CFジャズ
DYEAR=1996
DGENRE=Jazz
TTITLE0=J.J.ジョンソン/ホワッツ・ニュー
TTITLE1=デイブ・ブルーベック/星に願いを
TTITLE2=デビッド・マシューズ/我が心のジョージア
TTITLE3=ボビー・ノリス/恋に落ちた時
TTITLE4=マイルス・デイビス/サマータイム
TTITLE5=デイブ・ブルーベック/テイク・ファイブ
TTITLE6=デビッド・マシューズ/ラウンド・アバウト・ミッドナイト
TTITLE7=マーカス・ロバーツ/サムワン・トゥ・ウォッチ・オーバー・ミー
TTITLE8=ウィリー・ネルソン/スターダスト
TTITLE9=パティ・ペイジ/ラブ・レター
TTITLE10=デューク・エリントン/A列車で行こう
TTITLE11=ベニー・グッドマン/シング・シング・シング
TTITLE12=ビリー・ホリデイ/オール・オブ・ミー
EXTD=
EXTT0=
EXTT1=
EXTT2=
EXTT3=
EXTT4=
EXTT5=
EXTT6=
EXTT7=
EXTT8=
EXTT9=
EXTT10=
EXTT11=
EXTT12=
PLAYORDER=
